<svg xmlns="http://www.w3.org/2000/svg" version="1.1" viewBox="61.44 75.36 117.6 92.64" style="max-height: 500px" width="117.6" height="92.64">
<g id="#000000ff">
<path d="M 0.00 0.00 L 240.00 0.00 L 240.00 240.00 L 0.00 240.00 L 0.00 0.00 M 101.56 84.74 C 97.02 85.67 92.28 86.76 88.58 89.70 C 84.54 92.57 82.52 97.26 80.29 101.50 C 77.69 101.58 74.22 100.82 72.60 103.44 C 71.47 105.30 72.64 107.26 73.88 108.68 C 70.72 110.27 67.16 112.29 66.56 116.12 C 64.22 127.20 64.00 138.94 67.11 149.89 C 67.47 151.70 69.29 152.52 70.25 153.95 C 71.16 155.20 72.07 156.97 73.92 156.76 C 78.54 156.80 83.16 156.94 87.77 156.68 C 89.61 156.49 90.23 154.46 91.03 153.10 C 110.09 149.46 129.93 149.33 148.98 153.10 C 149.77 154.71 150.74 156.95 152.93 156.76 C 157.54 156.81 162.16 156.93 166.76 156.69 C 168.29 156.59 168.88 154.95 169.74 153.94 C 170.70 152.54 172.49 151.71 172.87 149.93 C 175.64 140.61 175.56 130.73 174.41 121.16 C 173.95 118.57 173.64 115.89 172.46 113.51 C 171.07 111.13 168.43 110.00 166.13 108.71 C 167.31 107.21 168.60 105.28 167.37 103.39 C 165.71 100.84 162.26 101.58 159.69 101.51 C 157.57 97.46 155.68 93.02 151.98 90.13 C 146.09 85.37 138.19 84.65 130.96 83.73 C 121.17 82.76 111.26 83.09 101.56 84.74 Z" opacity="1.00" fill="#000000"/>
<path d="M 93.96 95.03 C 98.85 92.28 104.57 91.88 110.01 91.09 C 120.02 90.34 130.21 90.45 140.02 92.76 C 142.98 93.49 146.05 94.53 148.22 96.76 C 150.26 99.02 151.48 101.87 152.94 104.51 C 131.03 102.72 108.97 102.72 87.06 104.51 C 88.96 101.12 90.45 97.10 93.96 95.03 Z" opacity="1.00" fill="#000000"/>
<path d="M 81.21 113.11 C 88.01 111.53 95.02 111.63 101.93 110.96 C 119.69 110.52 137.54 110.26 155.20 112.43 C 159.37 112.54 162.51 115.45 166.09 117.18 C 167.99 126.50 168.31 136.27 166.32 145.61 C 158.92 145.21 151.37 146.44 144.11 144.60 C 136.49 143.14 128.71 143.16 120.99 143.03 C 111.41 143.07 101.73 143.15 92.36 145.36 C 86.15 145.89 79.90 145.40 73.68 145.61 C 71.70 136.27 71.98 126.50 73.91 117.18 C 76.40 115.92 78.66 114.25 81.21 113.11 M 80.04 116.33 C 78.74 118.06 79.83 120.53 80.30 122.45 C 81.76 123.08 83.24 123.85 84.89 123.72 C 89.39 123.68 93.97 123.83 98.35 122.61 C 97.75 121.64 97.08 120.64 95.98 120.17 C 91.19 117.44 85.57 115.97 80.04 116.33 M 141.63 122.58 C 145.98 123.85 150.54 123.66 155.02 123.72 C 156.69 123.86 158.19 123.10 159.68 122.47 C 160.46 120.46 160.66 118.31 160.24 116.19 C 153.78 116.40 145.96 117.26 141.63 122.58 M 113.47 127.60 C 107.53 128.62 100.93 128.32 95.70 131.73 C 94.06 132.48 93.67 134.78 95.02 135.99 C 97.64 138.61 101.57 138.42 104.99 138.49 C 115.66 138.49 126.33 138.56 137.00 138.46 C 139.96 138.38 143.53 138.17 145.41 135.52 C 146.61 133.67 145.01 131.62 143.25 130.96 C 138.75 128.93 133.75 128.47 128.91 127.89 C 123.83 127.01 118.59 127.03 113.47 127.60 Z" opacity="1.00" fill="#000000"/>
</g>
<g id="#ffffffff">
<path d="M 101.56 84.74 C 111.26 83.09 121.17 82.76 130.96 83.73 C 138.19 84.65 146.09 85.37 151.98 90.13 C 155.68 93.02 157.57 97.46 159.69 101.51 C 162.26 101.58 165.71 100.84 167.37 103.39 C 168.60 105.28 167.31 107.21 166.13 108.71 C 168.43 110.00 171.07 111.13 172.46 113.51 C 173.64 115.89 173.95 118.57 174.41 121.16 C 175.56 130.73 175.64 140.61 172.87 149.93 C 172.49 151.71 170.70 152.54 169.74 153.94 C 168.88 154.95 168.29 156.59 166.76 156.69 C 162.16 156.93 157.54 156.81 152.93 156.76 C 150.74 156.95 149.77 154.71 148.98 153.10 C 129.93 149.33 110.09 149.46 91.03 153.10 C 90.23 154.46 89.61 156.49 87.77 156.68 C 83.16 156.94 78.54 156.80 73.92 156.76 C 72.07 156.97 71.16 155.20 70.25 153.95 C 69.29 152.52 67.47 151.70 67.11 149.89 C 64.00 138.94 64.22 127.20 66.56 116.12 C 67.16 112.29 70.72 110.27 73.88 108.68 C 72.64 107.26 71.47 105.30 72.60 103.44 C 74.22 100.82 77.69 101.58 80.29 101.50 C 82.52 97.26 84.54 92.57 88.58 89.70 C 92.28 86.76 97.02 85.67 101.56 84.74 M 93.96 95.03 C 90.45 97.10 88.96 101.12 87.06 104.51 C 108.97 102.72 131.03 102.72 152.94 104.51 C 151.48 101.87 150.26 99.02 148.22 96.76 C 146.05 94.53 142.98 93.49 140.02 92.76 C 130.21 90.45 120.02 90.34 110.01 91.09 C 104.57 91.88 98.85 92.28 93.96 95.03 M 81.21 113.11 C 78.66 114.25 76.40 115.92 73.91 117.18 C 71.98 126.50 71.70 136.27 73.68 145.61 C 79.90 145.40 86.15 145.89 92.36 145.36 C 101.73 143.15 111.41 143.07 120.99 143.03 C 128.71 143.16 136.49 143.14 144.11 144.60 C 151.37 146.44 158.92 145.21 166.32 145.61 C 168.31 136.27 167.99 126.50 166.09 117.18 C 162.51 115.45 159.37 112.54 155.20 112.43 C 137.54 110.26 119.69 110.52 101.93 110.96 C 95.02 111.63 88.01 111.53 81.21 113.11 Z" opacity="1.00" fill="#ffffff"/>
<path d="M 80.04 116.33 C 85.57 115.97 91.19 117.44 95.98 120.17 C 97.08 120.64 97.75 121.64 98.35 122.61 C 93.97 123.83 89.39 123.68 84.89 123.72 C 83.24 123.85 81.76 123.08 80.30 122.45 C 79.83 120.53 78.74 118.06 80.04 116.33 Z" opacity="1.00" fill="#ffffff"/>
<path d="M 141.63 122.58 C 145.96 117.26 153.78 116.40 160.24 116.19 C 160.66 118.31 160.46 120.46 159.68 122.47 C 158.19 123.10 156.69 123.86 155.02 123.72 C 150.54 123.66 145.98 123.85 141.63 122.58 Z" opacity="1.00" fill="#ffffff"/>
<path d="M 113.47 127.60 C 118.59 127.03 123.83 127.01 128.91 127.89 C 133.75 128.47 138.75 128.93 143.25 130.96 C 145.01 131.62 146.61 133.67 145.41 135.52 C 143.53 138.17 139.96 138.38 137.00 138.46 C 126.33 138.56 115.66 138.49 104.99 138.49 C 101.57 138.42 97.64 138.61 95.02 135.99 C 93.67 134.78 94.06 132.48 95.70 131.73 C 100.93 128.32 107.53 128.62 113.47 127.60 Z" opacity="1.00" fill="#ffffff"/>
</g>
</svg>